# AST/ASF file generated using VICON BodyLanguage
# -----------------------------------------------
:version 1.10
:name VICON
:units
  mass 1.0
  length 0.45
  angle deg
:documentation
   .ast/.asf automatically generated from VICON data using
   VICON BodyBuilder and BodyLanguage model FoxedUp or BRILLIANT.MOD
:root
   order TX TY TZ RX RY RZ
   axis XYZ
   position 0 0 0  
   orientation 0 0 0 
:bonedata
  begin
     id 1 
     name lhipjoint
     direction 0.693937 -0.600361 0.397515 
     length 2.37164 
     axis 0 0 0  XYZ
  end
  begin
     id 2 
     name lfemur
     direction 0.34202 -0.939693 0  
     length 6.18497  
     axis 0 0 20  XYZ
    dof rx ry rz
    limits (-160.0 20.0)
           (-70.0 70.0)
           (-60.0 70.0)
  end
  begin
     id 3 
     name ltibia
     direction 0.34202 -0.939693 0   
     length 6.91601   
     axis 0 0 20   XYZ
    dof rx
    limits (-10.0 170.0)
  end
  begin
     id 4 
     name lfoot
     direction 0.0978718 -0.2689 0.958182   
     length 1.81453   
     axis -90 7.62852e-016 20   XYZ
    dof rx rz
    limits (-45.0 90.0)
           (-70.0 20.0)
  end
  begin
     id 5 
     name ltoes
     direction 1.53569e-011 -4.21951e-011 1   
     length 0.912052   
     axis -90 7.62852e-016 20   XYZ
    dof rx
    limits (-90.0 20.0)
  end
  begin
     id 6 
     name rhipjoint
     direction -0.643996 -0.637876 0.422354   
     length 2.23216  
     axis 0 0 0  XYZ 
  end
  begin
     id 7 
     name rfemur
     direction -0.34202 -0.939693 0   
     length 6.15404   
     axis 0 0 -20   XYZ
    dof rx ry rz
    limits (-160.0 20.0)
           (-70.0 70.0)
           (-70.0 60.0)
  end
  begin
     id 8 
     name rtibia
     direction -0.34202 -0.939693 0   
     length 6.86744   
     axis 0 0 -20   XYZ
    dof rx
    limits (-10.0 170.0)
 end
 begin
     id 9 
     name rfoot
     direction -0.118701 -0.326127 0.937844   
     length 1.9243  
     axis -90 -7.62852e-016 -20   XYZ
    dof rx rz
    limits (-45.0 90.0)
           (-20.0 70.0)
  end
  begin
     id 10 
     name rtoes
     direction -1.5356e-011 -4.2181e-011 1   
     length 0.958865   
     axis -90 -7.62852e-016 -20   XYZ
    dof rx
    limits (-90.0 20.0)
  end
  begin
     id 11 
     name lowerback
     direction 0.0310826 0.968686 -0.246334   
     length 2.00021   
     axis 0 0 0   XYZ
    dof rx ry rz
    limits (-20.0 45.0)
           (-30.0 30.0)
           (-30.0 30.0)
  end
  begin
     id 12 
     name upperback
     direction -0.0152834 0.999474 -0.0286152   
     length 2.03728   
     axis 0 0 0   XYZ
    dof rx ry rz
    limits (-20.0 45.0)
           (-30.0 30.0)
           (-30.0 30.0)
  end
  begin
     id 13 
     name thorax
     direction -0.0323701 0.996236 0.0804149   
     length 2.16   
     axis 0 0 0   XYZ
    dof rx ry rz
    limits (-20.0 45.0)
           (-30.0 30.0)
           (-30.0 30.0)
  end
  begin
     id 14 
     name lowerneck
     direction 0.0307935 0.982251 0.185027   
     length 1.43558   
     axis 0 0 0   XYZ
    dof rx ry rz
    limits (-20.0 45.0)
           (-30.0 30.0)
           (-30.0 30.0)
  end
  begin
     id 15 
     name upperneck
     direction -0.0927153 0.994775 0.0427454   
     length 1.44603   
     axis 0 0 0   XYZ
    dof rx ry rz
    limits (-20.0 45.0)
           (-30.0 30.0)
           (-30.0 30.0)
  end
  begin
     id 16
     name head
     direction -0.0341265 0.999406 -0.00472033  
     length 1.45931  
     axis 0 0 0   XYZ
    dof rx ry rz
    limits (-20.0 45.0)
           (-30.0 30.0)
           (-30.0 30.0)
  end
  begin
     id 17 
     name lclavicle
     direction 0.820755 0.555306 -0.134151  
     length 2.66075  
     axis 0 0 0   XYZ
    dof ry rz
    limits (-20.0 10.0)
           (0.0 20.0)
  end
  begin
     id 18 
     name lhumerus
     direction 1 -4.48971e-011 5.24853e-027   
     length 5.0546   
     axis -180 -30 -90   XYZ
    dof rx ry rz
    limits (-60.0 90.0)
           (-90.0 90.0)
           (-90.0 90.0)
  end
  begin
     id 19
     name lradius
     direction 1 -4.48971e-011 2.76575e-028   
     length 3.39013   
     axis -180 -30 -90   XYZ
    dof rx
    limits (-10.0 170.0)
  end
  begin
     id 20
     name lwrist
     direction 1 -4.48939e-011 -2.27826e-027   
     length 1.69507   
     axis 2.17013e-015 90 90   XYZ
    dof ry
    limits (-180.0 0.0)
 end
  begin
     id 21 
     name lhand
     direction 1 -4.49009e-011 -4.55652e-027   
     length 0.572425   
     axis 2.90745e-015 90 90   XYZ
    dof rx rz
    limits (-90.0 90.0)
           (-45.0 45.0)
  end
  begin
     id 22 
     name lfingers
     direction 1 -4.48955e-011 -9.11303e-027   
     length 0.461504   
     axis 5.81489e-015 90 90   XYZ
    dof rx
    limits (0.0 90.0)
  end
  begin
     id 23
     name lthumb
     direction 0.707107 -6.34929e-011 0.707107   
     length 0.66263   
     axis -90 45 2.85299e-015   XYZ
    dof rx rz
    limits (-45.0 45.0)
           (-45.0 45.0)
  end
  begin
     id 24 
     name rclavicle
     direction -0.754477 0.632921 -0.173712   
     length 2.73081  
     axis 0 0 0   XYZ 
    dof ry rz
    limits (-10.0 20.0)
           (-20.0 0.0)
  end
  begin
     id 25 
     name rhumerus
     direction -1 -4.48969e-011 5.1496e-027  
     length 5.0701   
     axis -180 30 90   XYZ
    dof rx ry rz
    limits (-90.0 60.0)
           (-90.0 90.0)
           (-90.0 90.0)
  end
  begin
     id 26 
     name rradius
     direction -1 -4.48967e-011 -7.15624e-028   
     length 3.14957   
     axis -180 30 90   XYZ
    dof rx
    limits (-10.0 170.0)
  end
  begin
     id 27 
     name rwrist
     direction -1 -4.48938e-011 -2.27826e-027   
     length 1.57479   
     axis 2.17013e-015 -90 -90   XYZ
    dof ry
    limits (-180.0 0.0)
  end
  begin
     id 28
     name rhand
     direction -1 -4.49008e-011 -4.55652e-027   
     length 0.718191   
     axis 2.90745e-015 -90 -90   XYZ
    dof rx rz
    limits (-90.0 90.0)
           (-45.0 45.0)
  end
  begin
     id 29
     name rfingers
     direction -1 -4.48953e-011 -9.11303e-027   
     length 0.579024   
     axis 5.81489e-015 -90 -90   XYZ
    dof rx
    limits (0.0 90.0)
  end
  begin
     id 30
     name rthumb
     direction -0.707107 -6.34937e-011 0.707107   
     length 0.831366   
     axis -90 -45 -2.85299e-015   XYZ
    dof rx rz
    limits (-45.0 45.0)
           (-45.0 45.0)
  end
:hierarchy
  begin
    root lhipjoint rhipjoint lowerback
    lhipjoint lfemur
    lfemur ltibia
    ltibia lfoot
    lfoot ltoes
    rhipjoint rfemur
    rfemur rtibia
    rtibia rfoot
    rfoot rtoes
    lowerback upperback
    upperback thorax
    thorax lowerneck lclavicle rclavicle
    lowerneck upperneck
    upperneck head
    lclavicle lhumerus
    lhumerus lradius
    lradius lwrist
    lwrist lhand lthumb
    lhand lfingers
    rclavicle rhumerus
    rhumerus rradius
    rradius rwrist
    rwrist rhand rthumb
    rhand rfingers
  end

#!OML:ASF H:\Male1\Project 1\Capture day 1\Session 1\Male1.ASF
:FULLY-SPECIFIED
:DEGREES
200
root 15.2746 15.3921 3.72033 175.236 -29.2193 179.931
lowerback 5.00186 1.45913 -0.807907
upperback 2.74718 1.77097 -1.67641
thorax 0.0474743 0.83285 -1.35257
lowerneck -6.93107 3.87723 8.57135
upperneck 7.18939 4.65667 -4.34671
head 3.57761 2.33856 -2.46081
rclavicle 1.08338e-014 3.97569e-015
rhumerus 19.9763 21.0253 -66.6978
rradius 69.222
rwrist -9.80891
rhand -6.8625 -0.257462
rfingers 7.12502
rthumb 19.0031 -29.3492
lclavicle 1.08338e-014 3.97569e-015
lhumerus 18.5378 11.8076 89.5735
lradius 65.4765
lwrist 69.2009
lhand -31.8748 29.3817
lfingers 7.12502
lthumb -5.12781 59.2996
rfemur -2.74 13.436 22.615
rtibia 24.4671
rfoot -26.0862 -28.4739
rtoes -20.2146
lfemur -1.27921 -15.9702 -21.6578
ltibia 24.4829
lfoot -25.1672 27.1621
ltoes 1.90351
201
root 15.2711 15.3928 3.72055 175.198 -29.2876 179.964
lowerback 4.84227 1.45587 -0.698564
upperback 2.84324 1.7724 -1.71464
thorax 0.239664 0.833832 -1.44749
lowerneck -6.98411 3.87881 8.48374
upperneck 7.13539 4.65362 -4.23683
head 3.56509 2.33867 -2.41268
rclavicle -8.39865e-014 3.18055e-014
rhumerus 20.676 20.4565 -66.5579
rradius 69.6427
rwrist -11.5992
rhand -5.74731 0.757062
rfingers 7.12502
rthumb 20.0753 -28.2258
lclavicle -8.39865e-014 3.18055e-014
lhumerus 18.6995 11.786 89.6834
lradius 65.5119
lwrist 69.1662
lhand -31.7974 29.3058
lfingers 7.12502
lthumb -5.05315 59.2255
rfemur -2.64564 13.5514 22.6566
rtibia 24.4015
rfoot -26.303 -28.4873
rtoes -19.6441
lfemur -1.30084 -15.847 -21.6216
ltibia 24.5381
lfoot -24.9807 27.0747
ltoes 1.3079
202
root 15.2685 15.3927 3.72256 175.128 -29.2821 180.017
lowerback 4.84298 1.46016 -0.606635
upperback 2.85851 1.78136 -1.72828
thorax 0.258476 0.83929 -1.51317
lowerneck -7.04117 3.87538 8.36029
upperneck 7.18507 4.6433 -4.07827
head 3.58228 2.33699 -2.34375
rclavicle -1.98288e-014 1.43125e-014
rhumerus 21.345 19.5949 -66.6936
rradius 69.8736
rwrist -13.9921
rhand -4.5446 1.98646
rfingers 7.12502
rthumb 21.2309 -26.8708
lclavicle -1.98288e-014 1.43125e-014
lhumerus 18.7836 11.7722 89.7419
lradius 65.482
lwrist 69.1054
lhand -31.6254 28.7123
lfingers 7.12502
lthumb -4.88707 58.636
rfemur -2.57019 13.6529 22.7226
rtibia 24.3709
rfoot -26.3858 -28.5271
rtoes -19.431
lfemur -1.23893 -15.8882 -21.6106
ltibia 24.5251
lfoot -25.005 27.1142
ltoes 1.28626
203
root 15.2661 15.3928 3.72536 175.132 -29.2839 179.99
lowerback 4.83621 1.45312 -0.654966
upperback 2.84241 1.76997 -1.74684
thorax 0.244556 0.833173 -1.50471
lowerneck -7.10489 3.86771 8.39615
upperneck 7.27489 4.62189 -4.05293
head 3.61901 2.32853 -2.3414
rclavicle 7.3774e-014 -1.51076e-014
rhumerus 22.0482 18.4726 -67.1342
rradius 69.8489
rwrist -17.1521
rhand -3.90118 3.0708
rfingers 7.12502
rthumb 21.8489 -25.7157
lclavicle 7.3774e-014 -1.51076e-014
lhumerus 18.8389 11.7161 89.6701
lradius 65.4263
lwrist 69.1042
lhand -31.6371 28.2296
lfingers 7.12502
lthumb -4.8983 58.153
rfemur -2.55275 13.6061 22.6715
rtibia 24.3398
rfoot -26.3891 -28.4618
rtoes -19.2943
lfemur -1.17751 -16.2411 -21.7284
ltibia 24.4895
lfoot -24.9587 27.524
ltoes 0.645136
204
root 15.2657 15.3946 3.72869 175.199 -29.3427 179.927
lowerback 4.82938 1.43318 -0.785347
upperback 2.79924 1.73813 -1.78034
thorax 0.20039 0.816174 -1.46509
lowerneck -7.19594 3.90604 8.71121
upperneck 7.36761 4.65082 -4.25716
head 3.67632 2.34225 -2.45044
rclavicle -3.43152e-014 1.43125e-014
rhumerus 22.7446 17.0557 -67.9778
rradius 69.6344
rwrist -21.3295
rhand -4.09107 3.61563
rfingers 7.12502
rthumb 21.6665 -25.192
lclavicle -3.43152e-014 1.43125e-014
lhumerus 18.8753 11.6374 89.5628
lradius 65.3818
lwrist 69.0669
lhand -31.6549 28.1683
lfingers 7.12502
lthumb -4.9155 58.0912
rfemur -2.57382 13.5182 22.5702
rtibia 24.2875
rfoot -26.4207 -28.3996
rtoes -19.2165
lfemur -1.1914 -16.5703 -21.8503
ltibia 24.4606
lfoot -24.6212 28.0152
ltoes -0.847761
